# This file uses centimeters as units for non-parametric coordinates.

mtllib Ground low.mtl
g default
v -0.000000 -8.586398 -9.803393
v -3.751597 -8.586398 -9.057154
v -6.932046 -8.586398 -6.932046
v -9.057155 -8.586398 -3.751596
v -9.803393 -8.586397 0.000001
v -9.057156 -8.586396 3.751597
v -6.932044 -8.586396 6.932047
v -3.751595 -8.586396 9.057156
v 0.000001 -8.586396 9.803393
v 3.751597 -8.586396 9.057154
v 6.932047 -8.586396 6.932046
v 9.057156 -8.586397 3.751595
v 9.803393 -8.586397 -0.000000
v 9.057155 -8.586398 -3.751598
v 6.932040 -8.586398 -6.932047
v 3.751595 -8.586398 -9.057155
v -0.000001 -8.586408 -69.025528
v -26.414927 -8.586407 -63.771248
v -48.808407 -8.586405 -48.808407
v -63.771248 -8.586403 -26.414919
v -69.025528 -8.586397 0.000002
v -63.771248 -8.586391 26.414927
v -48.808407 -8.586390 48.808407
v -26.414913 -8.586388 63.771248
v 0.000005 -8.586387 69.025528
v 26.414919 -8.586388 63.771248
v 48.808414 -8.586390 48.808399
v 63.771252 -8.586394 26.414902
v 69.025528 -8.586397 -0.000004
v 63.771248 -8.586401 -26.414928
v 48.808399 -8.586402 -48.808414
v 26.414915 -8.586406 -63.771248
v -1.875799 -8.586398 -9.430273
v -5.341822 -8.586398 -7.994600
v -7.994600 -8.586398 -5.341821
v -9.430274 -8.586397 -1.875798
v -9.430275 -8.586397 1.875799
v -7.994599 -8.586396 5.341822
v -5.341819 -8.586396 7.994601
v -1.875797 -8.586396 9.430275
v 1.875799 -8.586396 9.430273
v 5.341822 -8.586396 7.994600
v 7.994601 -8.586397 5.341821
v 9.430275 -8.586397 1.875797
v 9.430274 -8.586397 -1.875799
v 7.994597 -8.586398 -5.341823
v 5.341818 -8.586398 -7.994601
v 1.875797 -8.586398 -9.430274
v -13.463679 -8.586408 -67.686478
v -38.341297 -8.586406 -57.381813
v -57.381817 -8.586404 -38.341297
v -67.686478 -8.586400 -13.463678
v -67.686478 -8.586394 13.463680
v -57.381817 -8.586390 38.341297
v -38.341293 -8.586389 57.381813
v -13.463669 -8.586387 67.686478
v 13.463679 -8.586387 67.686478
v 38.341301 -8.586389 57.381813
v 57.381828 -8.586392 38.341286
v 67.686478 -8.586396 13.463664
v 67.686478 -8.586399 -13.463680
v 57.381813 -8.586402 -38.341305
v 38.341293 -8.586404 -57.381821
v 13.463675 -8.586408 -67.686478
vt 0.513570 0.568290
vt 0.597160 0.988460
vt 0.500000 0.998030
vt 0.499980 0.570990
vt 0.402830 0.988460
vt 0.486400 0.568290
vt 0.309400 0.960120
vt 0.472810 0.565580
vt 0.527150 0.565580
vt 0.690590 0.960110
vt 0.538670 0.557890
vt 0.776700 0.914090
vt 0.223290 0.914100
vt 0.461290 0.557890
vt 0.147820 0.852160
vt 0.449780 0.550190
vt 0.550180 0.550190
vt 0.852170 0.852150
vt 0.557890 0.538680
vt 0.914110 0.776680
vt 0.085880 0.776690
vt 0.442080 0.538680
vt 0.039860 0.690580
vt 0.434390 0.527150
vt 0.565570 0.527160
vt 0.960130 0.690570
vt 0.568280 0.513580
vt 0.988470 0.597150
vt 0.011510 0.597150
vt 0.431690 0.513580
vt 0.001950 0.499990
vt 0.428990 0.499990
vt 0.570980 0.500000
vt 0.998040 0.499980
vt 0.568280 0.486410
vt 0.988480 0.402830
vt 0.011520 0.402820
vt 0.431690 0.486410
vt 0.039860 0.309390
vt 0.434400 0.472820
vt 0.565580 0.472830
vt 0.960130 0.309390
vt 0.557890 0.461310
vt 0.914110 0.223290
vt 0.085890 0.223280
vt 0.442090 0.461310
vt 0.147830 0.147820
vt 0.449790 0.449790
vt 0.550190 0.449800
vt 0.852170 0.147820
vt 0.538680 0.442100
vt 0.776700 0.085880
vt 0.223300 0.085870
vt 0.461300 0.442090
vt 0.309410 0.039860
vt 0.472830 0.434400
vt 0.527160 0.434410
vt 0.690590 0.039860
vt 0.513580 0.431700
vt 0.597170 0.011520
vt 0.402840 0.011510
vt 0.486410 0.431700
vt 0.500000 0.001950
vt 0.500000 0.429000
vn 0.000000 1.000000 -0.000000
vn 0.000000 1.000000 -0.000000
vn 0.000000 1.000000 -0.000000
vn 0.000000 1.000000 -0.000000
vn -0.000000 1.000000 -0.000000
vn -0.000000 1.000000 -0.000000
vn -0.000000 1.000000 -0.000000
vn -0.000000 1.000000 -0.000000
vn 0.000000 1.000000 -0.000000
vn 0.000000 1.000000 -0.000000
vn 0.000000 1.000000 -0.000000
vn 0.000000 1.000000 -0.000000
vn -0.000000 1.000000 -0.000000
vn -0.000000 1.000000 -0.000000
vn -0.000000 1.000000 -0.000000
vn -0.000000 1.000000 -0.000000
vn -0.000000 1.000000 -0.000000
vn -0.000000 1.000000 -0.000000
vn -0.000000 1.000000 -0.000000
vn -0.000000 1.000000 -0.000000
vn -0.000000 1.000000 -0.000000
vn -0.000000 1.000000 -0.000000
vn -0.000000 1.000000 -0.000000
vn -0.000000 1.000000 -0.000000
vn -0.000000 1.000000 -0.000000
vn -0.000000 1.000000 -0.000000
vn -0.000000 1.000000 -0.000000
vn -0.000000 1.000000 -0.000000
vn -0.000000 1.000000 -0.000000
vn -0.000000 1.000000 -0.000000
vn -0.000000 1.000000 -0.000000
vn -0.000000 1.000000 -0.000000
vn 0.000000 1.000000 -0.000000
vn 0.000000 1.000000 -0.000000
vn 0.000000 1.000000 -0.000000
vn 0.000000 1.000000 -0.000000
vn -0.000000 1.000000 -0.000000
vn -0.000000 1.000000 -0.000000
vn -0.000000 1.000000 -0.000000
vn -0.000000 1.000000 -0.000000
vn -0.000000 1.000000 0.000000
vn -0.000000 1.000000 0.000000
vn -0.000000 1.000000 0.000000
vn -0.000000 1.000000 0.000000
vn 0.000000 1.000000 -0.000000
vn 0.000000 1.000000 -0.000000
vn 0.000000 1.000000 -0.000000
vn 0.000000 1.000000 -0.000000
vn -0.000000 1.000000 -0.000000
vn -0.000000 1.000000 -0.000000
vn -0.000000 1.000000 -0.000000
vn -0.000000 1.000000 -0.000000
vn 0.000000 1.000000 -0.000000
vn 0.000000 1.000000 -0.000000
vn 0.000000 1.000000 -0.000000
vn 0.000000 1.000000 -0.000000
vn -0.000000 1.000000 -0.000000
vn -0.000000 1.000000 -0.000000
vn -0.000000 1.000000 -0.000000
vn -0.000000 1.000000 -0.000000
vn 0.000000 1.000000 -0.000000
vn 0.000000 1.000000 -0.000000
vn 0.000000 1.000000 -0.000000
vn 0.000000 1.000000 -0.000000
vn -0.000000 1.000000 0.000000
vn -0.000000 1.000000 0.000000
vn -0.000000 1.000000 0.000000
vn -0.000000 1.000000 0.000000
vn 0.000000 1.000000 -0.000000
vn 0.000000 1.000000 -0.000000
vn 0.000000 1.000000 -0.000000
vn 0.000000 1.000000 -0.000000
vn -0.000000 1.000000 -0.000000
vn -0.000000 1.000000 -0.000000
vn -0.000000 1.000000 -0.000000
vn -0.000000 1.000000 -0.000000
vn 0.000000 1.000000 -0.000000
vn 0.000000 1.000000 -0.000000
vn 0.000000 1.000000 -0.000000
vn 0.000000 1.000000 -0.000000
vn 0.000000 1.000000 -0.000000
vn 0.000000 1.000000 -0.000000
vn 0.000000 1.000000 -0.000000
vn 0.000000 1.000000 -0.000000
vn 0.000000 1.000000 -0.000000
vn 0.000000 1.000000 -0.000000
vn 0.000000 1.000000 -0.000000
vn 0.000000 1.000000 -0.000000
vn 0.000000 1.000000 -0.000000
vn 0.000000 1.000000 -0.000000
vn 0.000000 1.000000 -0.000000
vn 0.000000 1.000000 -0.000000
vn 0.000000 1.000000 -0.000000
vn 0.000000 1.000000 -0.000000
vn 0.000000 1.000000 -0.000000
vn 0.000000 1.000000 -0.000000
vn 0.000000 1.000000 -0.000000
vn 0.000000 1.000000 -0.000000
vn 0.000000 1.000000 -0.000000
vn 0.000000 1.000000 -0.000000
vn 0.000000 1.000000 -0.000000
vn 0.000000 1.000000 -0.000000
vn 0.000000 1.000000 -0.000000
vn 0.000000 1.000000 -0.000000
vn 0.000000 1.000000 -0.000000
vn 0.000000 1.000000 -0.000000
vn 0.000000 1.000000 -0.000000
vn 0.000000 1.000000 -0.000000
vn -0.000000 1.000000 -0.000000
vn -0.000000 1.000000 -0.000000
vn -0.000000 1.000000 -0.000000
vn -0.000000 1.000000 -0.000000
vn 0.000000 1.000000 -0.000000
vn 0.000000 1.000000 -0.000000
vn 0.000000 1.000000 -0.000000
vn 0.000000 1.000000 -0.000000
vn -0.000000 1.000000 -0.000000
vn -0.000000 1.000000 -0.000000
vn -0.000000 1.000000 -0.000000
vn -0.000000 1.000000 -0.000000
vn 0.000000 1.000000 -0.000000
vn 0.000000 1.000000 -0.000000
vn 0.000000 1.000000 -0.000000
vn 0.000000 1.000000 -0.000000
vn -0.000000 1.000000 -0.000000
vn -0.000000 1.000000 -0.000000
vn -0.000000 1.000000 -0.000000
vn -0.000000 1.000000 -0.000000
s off
g ground_low1
usemtl initialShadingGroup
f 48/1/1 64/2/2 17/3/3 1/4/4
f 1/4/5 17/3/6 49/5/7 33/6/8
f 33/6/9 49/5/10 18/7/11 2/8/12
f 16/9/13 32/10/14 64/2/15 48/1/16
f 47/11/17 63/12/18 32/10/19 16/9/20
f 2/8/21 18/7/22 50/13/23 34/14/24
f 34/14/25 50/13/26 19/15/27 3/16/28
f 15/17/29 31/18/30 63/12/31 47/11/32
f 46/19/33 62/20/34 31/18/35 15/17/36
f 3/16/37 19/15/38 51/21/39 35/22/40
f 35/22/41 51/21/42 20/23/43 4/24/44
f 14/25/45 30/26/46 62/20/47 46/19/48
f 45/27/49 61/28/50 30/26/51 14/25/52
f 4/24/53 20/23/54 52/29/55 36/30/56
f 36/30/57 52/29/58 21/31/59 5/32/60
f 13/33/61 29/34/62 61/28/63 45/27/64
f 44/35/65 60/36/66 29/34/67 13/33/68
f 5/32/69 21/31/70 53/37/71 37/38/72
f 37/38/73 53/37/74 22/39/75 6/40/76
f 12/41/77 28/42/78 60/36/79 44/35/80
f 43/43/81 59/44/82 28/42/83 12/41/84
f 6/40/85 22/39/86 54/45/87 38/46/88
f 38/46/89 54/45/90 23/47/91 7/48/92
f 11/49/93 27/50/94 59/44/95 43/43/96
f 42/51/97 58/52/98 27/50/99 11/49/100
f 7/48/101 23/47/102 55/53/103 39/54/104
f 39/54/105 55/53/106 24/55/107 8/56/108
f 10/57/109 26/58/110 58/52/111 42/51/112
f 41/59/113 57/60/114 26/58/115 10/57/116
f 8/56/117 24/55/118 56/61/119 40/62/120
f 40/62/121 56/61/122 25/63/123 9/64/124
f 9/64/125 25/63/126 57/60/127 41/59/128
