# This file uses centimeters as units for non-parametric coordinates.

mtllib Fall 4.mtl
g default
v -82.205508 -175.356470 0.485990
v -81.270251 -176.523844 3.301135
v -83.668262 -176.523859 10.024094
v -86.202159 -175.356470 11.690931
v -82.205508 -29.799797 0.485990
v -81.243991 -30.935406 3.532864
v -83.668262 -30.967224 10.024093
v -86.202159 -29.799795 11.690931
v -81.548167 -11.800668 0.773563
v -80.740497 -11.967590 3.518441
v -83.111667 -11.967591 10.166181
v -85.500117 -11.800668 11.853123
v -82.048885 -15.258467 0.537836
v -81.121104 -16.187265 3.350505
v -83.519107 -16.187265 10.073471
v -86.045535 -15.258461 11.742779
v -82.226825 -176.523844 6.742863
v -82.226840 -30.967224 6.742865
v -82.078731 -16.153895 6.791888
v -81.702747 -11.827747 6.916244
v -77.820003 -9.056633 2.769214
v -78.437343 -8.454766 4.454300
v -79.344112 -8.314922 7.696583
v -80.697566 -8.454766 10.791009
v -81.456233 -8.064547 12.876070
vt 0.752373 0.551782
vt 0.752373 0.003031
vt 0.995409 0.003031
vt 0.995409 0.551782
vt 0.500636 0.003031
vt 0.500636 0.551782
vt 0.005013 0.003031
vt 0.224291 0.003031
vt 0.224291 0.551782
vt 0.005013 0.551782
vt 0.995409 0.891319
vt 0.752373 0.891319
vt 0.752373 0.750567
vt 0.995409 0.750567
vt 0.500636 0.891319
vt 0.500636 0.750567
vt 0.224291 0.891319
vt 0.005013 0.891319
vt 0.005013 0.750567
vt 0.224291 0.750567
vt 0.995409 0.996699
vt 0.752373 0.996699
vt 0.500636 0.996699
vt 0.224291 0.996699
vt 0.005013 0.996699
vn -0.999759 0.000762 0.021960
vn -0.951346 0.001271 0.308123
vn -0.951452 -0.000159 0.307799
vn -0.999024 0.000125 -0.044172
vn -0.939403 0.000152 -0.342814
vn -0.939457 0.000973 -0.342666
vn -0.549570 0.000000 -0.835448
vn -0.549342 0.001199 -0.835597
vn -0.763161 0.000771 -0.646208
vn -0.803034 -0.000000 -0.595933
vn -0.925864 0.314077 0.210078
vn -0.949818 0.031641 0.311197
vn -0.999589 0.026243 0.011507
vn -0.920367 0.379713 -0.093502
vn -0.881284 0.352796 -0.314442
vn -0.939581 0.028613 -0.341130
vn -0.754383 0.372550 -0.540474
vn -0.771712 0.026430 -0.635422
vn -0.548260 0.030102 -0.835766
vn -0.576262 0.322233 -0.751058
vn -0.762291 0.622293 -0.177944
vn -0.710361 0.702785 -0.038481
vn -0.769496 0.576809 -0.274166
vn -0.554780 0.620288 -0.554493
vn -0.677731 0.603475 -0.420117
s 1
g Fall_3
usemtl lambert6SG
f 6/1/1 5/4/2 1/3/3 2/2/4
f 17/5/5 18/6/6 6/1/1 2/2/4
f 4/7/7 8/10/8 7/9/9 3/8/10
f 9/11/11 13/14/12 14/13/13 10/12/14
f 20/15/15 10/12/14 14/13/13 19/16/16
f 11/17/17 15/20/18 16/19/19 12/18/20
f 14/13/13 13/14/12 5/4/2 6/1/1
f 18/6/6 19/16/16 14/13/13 6/1/1
f 8/10/8 16/19/19 15/20/18 7/9/9
f 3/8/10 7/9/9 18/6/6 17/5/5
f 7/9/9 15/20/18 19/16/16 18/6/6
f 11/17/17 20/15/15 19/16/16 15/20/18
f 10/12/14 22/22/21 21/21/22 9/11/11
f 20/15/15 23/23/23 22/22/21 10/12/14
f 12/18/20 25/25/24 24/24/25 11/17/17
f 11/17/17 24/24/25 23/23/23 20/15/15
