# This file uses centimeters as units for non-parametric coordinates.

mtllib Fall 3.mtl
g default
v -74.750427 -6.390589 13.469270
v -69.400574 -7.361744 12.582522
v -76.941452 -7.370937 4.750876
v -77.585205 -6.698726 9.524338
v -75.126404 -6.730756 20.137648
v -69.665306 -7.733085 22.656189
v -76.569427 -8.625822 23.896128
v -74.423225 -8.498750 26.980400
v -78.424736 -14.088192 26.179728
v -77.724113 -15.043248 29.564070
v -72.240532 -7.569581 31.102341
v -76.461365 -14.568805 32.691509
v -75.406456 -12.727271 33.344444
v -66.508224 -6.206386 28.150206
v -63.915604 -6.673910 21.685398
v -65.105949 -6.426022 27.644207
v -64.170723 -6.480832 12.427125
v -69.878151 -5.817137 3.756288
v -70.720299 -6.345072 0.242120
v -78.579147 -6.973487 1.926439
v -83.964989 -14.115803 6.327291
v -82.987602 -13.489466 9.842146
v -84.362259 -13.185727 3.396886
v -82.143196 -11.573348 10.268281
v -82.969353 -11.464398 5.984373
v -83.901009 -11.296904 2.825058
v -78.424736 -105.982269 26.179728
v -77.724113 -106.937324 29.564070
v -76.461365 -106.462875 32.691509
v -75.406456 -104.621345 33.344444
v -83.964989 -106.009872 6.327291
v -82.987602 -105.383537 9.842146
v -84.362259 -105.079803 3.396886
vt 0.496224 0.936579
vt 0.496224 0.966873
vt 0.175599 0.936579
vt 0.408824 0.910828
vt 0.576912 0.913132
vt 0.772678 0.947885
vt 0.575113 0.891165
vt 0.765840 0.891165
vt 0.575113 0.825436
vt 0.723482 0.825436
vt 0.886438 0.828834
vt 0.991395 0.891165
vt 0.993294 0.829820
vt 0.991395 0.943747
vt 0.991395 0.996613
vt 0.772678 0.996613
vt 0.496224 0.996613
vt 0.175599 0.996613
vt 0.008926 0.996613
vt 0.008926 0.936579
vt 0.408824 0.818831
vt 0.408824 0.855319
vt 0.175599 0.855319
vt 0.175599 0.818831
vt 0.008926 0.855319
vt 0.008926 0.818831
vt 0.575113 0.006486
vt 0.750234 0.006486
vt 0.883612 0.006486
vt 0.998843 0.007494
vt 0.175599 0.014711
vt 0.408824 0.014711
vt 0.008926 0.014711
vn 0.133141 0.980620 -0.143726
vn 0.133141 0.980620 -0.143726
vn 0.133141 0.980620 -0.143726
vn 0.133141 0.980620 -0.143726
vn 0.172292 0.983856 0.048406
vn 0.172292 0.983856 0.048406
vn -0.078408 0.963243 0.256936
vn -0.078408 0.963243 0.256936
vn -0.770676 0.494086 0.402416
vn -0.770676 0.494086 0.402416
vn -0.800880 0.530415 0.277939
vn -0.800880 0.530415 0.277939
vn -0.859936 0.508444 -0.044653
vn -0.263319 0.959630 -0.098863
vn -0.141616 0.981640 -0.127784
vn -0.141616 0.981640 -0.127784
vn -0.171081 0.984840 0.028668
vn -0.175016 0.968175 0.178902
vn -0.138661 0.989760 0.033873
vn -0.138661 0.989760 0.033873
vn -0.912402 0.364160 0.186843
vn -0.719921 0.693961 0.011480
vn -0.726073 0.687438 0.015742
vn -0.912402 0.364160 0.186843
vn -0.630023 0.715458 0.301977
vn -0.903361 0.342013 0.258777
vn -0.979237 0.000000 0.202720
vn -0.979237 0.000000 0.202720
vn -0.927268 0.000000 0.374397
vn -0.526292 0.000000 0.850304
vn -0.963444 0.000000 0.267908
vn -0.963445 0.000000 0.267908
vn -0.990935 0.000000 0.134339
s 1
g Fall_3
usemtl Fall_LowSG
f 1/1/1 2/2/2 3/3/3 4/4/4
f 1/1/1 5/5/5 6/6/6 2/2/2
f 5/5/5 7/7/7 8/8/8 6/6/6
f 7/7/7 9/9/9 10/10/10 8/8/8
f 12/11/11 11/12/12 8/8/8 10/10/10
f 13/13/13 11/12/12 12/11/11
f 6/6/6 8/8/8 11/12/12 14/14/14
f 16/15/15 15/16/16 6/6/6 14/14/14
f 15/16/16 17/17/17 2/2/2 6/6/6
f 3/3/3 2/2/2 17/17/17 18/18/18
f 3/3/3 18/18/18 19/19/19 20/20/20
f 22/21/21 24/22/22 25/23/23 21/24/24
f 25/23/23 26/25/25 23/26/26 21/24/24
f 25/23/23 24/22/22 4/4/4 3/3/3
f 20/20/20 26/25/25 25/23/23 3/3/3
f 10/10/10 9/9/9 27/27/27 28/28/28
f 12/11/11 10/10/10 28/28/28 29/29/29
f 13/13/13 12/11/11 29/29/29 30/30/30
f 22/21/21 21/24/24 31/31/31 32/32/32
f 21/24/24 23/26/26 33/33/33 31/31/31
