# This file uses centimeters as units for non-parametric coordinates.

mtllib Fall 1.mtl
g default
v 57.742355 -8.501141 57.553604
v 53.256149 -7.237429 52.750252
v 45.227039 -7.329202 59.323402
v 49.708115 -8.704503 64.291397
v 50.136379 -7.245706 49.378315
v 41.962902 -6.957306 55.610592
v 61.507698 -7.308100 45.355789
v 58.595043 -6.950895 41.845234
v 65.620277 -8.170390 49.732788
v 48.254185 -7.606018 47.304558
v 57.108204 -7.458347 40.205780
v 41.004871 -7.562372 54.558178
v 59.031544 -11.808863 59.260635
v 50.725315 -11.987371 65.505859
v 67.269554 -11.754949 51.711800
v 67.233635 -14.566322 52.895321
v 59.463543 -14.217904 59.470634
v 51.627220 -13.726555 65.377556
v 59.463543 -106.111976 59.470634
v 67.233635 -106.460396 52.895321
v 51.627220 -105.620628 65.377556
vt 0.008729 0.792423
vt 0.493323 0.792423
vt 0.493323 0.884957
vt 0.008729 0.884957
vt 0.493323 0.952393
vt 0.008729 0.952393
vt 0.984225 0.884957
vt 0.984224 0.952393
vt 0.984225 0.792423
vt 0.984225 0.989496
vt 0.493323 0.989496
vt 0.008729 0.989496
vt 0.008729 0.729555
vt 0.493323 0.729555
vt 0.984225 0.729555
vt 0.493323 0.695260
vt 0.984224 0.695260
vt 0.008729 0.695260
vt 0.493323 0.007333
vt 0.984225 0.007333
vt 0.008730 0.007333
vn 0.114413 0.980495 0.159811
vn 0.114413 0.980495 0.159811
vn 0.114413 0.980495 0.159811
vn 0.114413 0.980495 0.159811
vn 0.030756 0.999249 0.023572
vn 0.030756 0.999249 0.023572
vn 0.017864 0.999228 0.035001
vn 0.017864 0.999228 0.035001
vn 0.105911 0.985956 0.129128
vn -0.124393 0.985264 -0.117389
vn -0.124393 0.985264 -0.117389
vn -0.134972 0.974665 -0.178356
vn 0.534594 0.491753 0.687305
vn 0.534594 0.491753 0.687305
vn 0.563112 0.563399 0.604555
vn 0.644364 0.242486 0.725256
vn 0.644364 0.242486 0.725256
vn 0.591140 0.205448 0.779964
vn 0.645978 0.000000 0.763356
vn 0.645978 0.000000 0.763356
vn 0.601934 0.000000 0.798546
s 1
g Fall_1
usemtl Fall_LowSG
f 4/1/1 1/2/2 2/3/3 3/4/4
f 3/4/4 2/3/3 5/5/5 6/6/6
f 2/3/3 7/7/7 8/8/8 5/5/5
f 1/2/2 9/9/9 7/7/7 2/3/3
f 11/10/10 10/11/11 5/5/5 8/8/8
f 10/11/11 12/12/12 6/6/6 5/5/5
f 14/13/13 13/14/14 1/2/2 4/1/1
f 13/14/14 15/15/15 9/9/9 1/2/2
f 17/16/16 16/17/17 15/15/15 13/14/14
f 18/18/18 17/16/16 13/14/14 14/13/13
f 16/17/17 17/16/16 19/19/19 20/20/20
f 17/16/16 18/18/18 21/21/21 19/19/19
